<?xml version="1.0" encoding="UTF-8"?>
<svg version="1.1" viewBox="0 0 2000 2000" width="2000" height="2000" xmlns="http://www.w3.org/2000/svg">
<path transform="translate(0)" d="m0 0h2e3v2e3h-2e3z" fill="#FCFCFC"/>
<path transform="translate(1177,11)" d="m0 0 5 1 2 4 1 16 4 2 8 5 20 8 23 7 23 5 26 4 29 2h14l17-2 10-3 2-19 3-3 5 2v21l12 3 79 27 36 11 36 9 39 7 34 4 31 2h17l18-2 12-12 4-5 5 2 1 6-8 9-6 8 1 9 7 21 11 24 13 22 10 14 11 13 7 8 6 7 8 7 11 9 10 5 5-1 11-7 5-2 3 3-1 5-10 8-4 5 4 8 8 13 14 25 16 31 10 17 13 21 20 28 11 14 11 13 9 10 7 8 13 14 8 7 7 7 14 11 14 9 19 1 2 2-1 5-6 2-14 2-9 10-9 17-9 24-7 26-4 21-2 16v37l1 12 21 2 1 1v5l-2 2h-21l-4 18-10 33-14 40-10 30-8 29-6 28-3 20-3 34v25l2 22 2 7 8 8 8 7 1 3-3 4-5-1-9-8-7-5h-10l-19 5-25 12-14 8-16 11-16 12-10 9-8 7-14 14-9 11-4 7-1 5 7 9 4 5-1 4-2 2-4-1-12-12-5 1-25 16-27 16-54 30-14 8-22 14-36 26-17 14-14 12-16 15-8 8-7 8-9 12-3 6v21l-2 2-5-1-2-2-2-19-5-6-14-9-20-8-21-7-26-7-30-5-19-2h-39l-10 2-2 17-3 3-5-1-1-1v-9l1-9-4-2-13-9-19-9-19-8-35-13-30-10-36-10-38-8-30-5-30-3-17-1h-13l-17 2-8 7-8 9-3 1-5-5 3-5 11-12 3-6v-17l-6-22-7-17-8-16-8-14-12-16-9-11-15-15-10-7-9-4-5 1-15 12-4-1-2-2 1-5 13-11 3-3v-6l-9-16-14-27-15-31-8-16-13-24-15-24-12-17-13-17-9-11-9-10-12-13-8-7-12-10-7-4-21 1-2-2 1-6 9-2 12-2 7-9 8-16 7-21 5-23 3-26v-37l-3-19-4-13-2-3-19-2-2-2 1-4 1-1 18-1 2-1 15-44 10-27 12-38 9-36 7-36 4-35 1-16v-38l-2-9-14-14 1-5 6-1 12 11 6 3h13l18-6 21-11 12-8 12-9 13-11 20-20 11-15 6-11 1-9-8-8v-2l-4-2v-6l2-2 5 1 7 8 5 4h11l21-7 26-11 26-12 17-8 19-10 24-14 30-20 12-9 14-11 10-8 10-9 8-7 10-9 9-9 9-11 8-11v-19z" fill="#340A48"/>
<path transform="translate(0,1763)" d="m0 0h232v237h-232z" fill="#56068B"/>
<path transform="translate(330,1220)" d="m0 0h1l-1 9-10 51-14 71-1 8 7 11 12 19 26-4 9-7 17-9 11-18 12-17 13-15 9-10 15-14 15-11 2 1-16 16-9 11-8 9-10 13-10 15-7 12-3 6 13 1 6-7 8-5 11-2-12 9-6 9 6 2 12 9 6-8 3-10 2-4v16l-4 10-1 5 3 7v3l8-7 11-12 11-16 12-19 9-16 8-15 1 3-6 17-11 24-11 19-14 19-12 14-2 2-3 19-4 12 3 13v12l11 2 25 6 4-1 26-15 25-15 26-15 40-24 2 1-16 12-34 24-15 11-17 12-18 13-16 11-4 3-12-2-27-5-3 16-6 16-7 15 5 2 11 8 18 13 17 12 18 13 10 7 35 5 59 9 9 1v2l-94-1-22-1-15-11-51-36-11-8-5 5-13 12-12 8 1 6 8 15 10 21-1 4-11 18-11 17-16 26-14 22-9 15-4 4-25 13-18 10-29 16-13 7-2-1 15-10 25-16 15-10 17-11 9-6 14-25 16-28 13-23 6-10-2-6-12-26-4-10v-2l-9 3-12 2h-18l-16-3-17-7-11-7-12-11-9-12-8-16-4-15-1-8v-10l-25-2-21-2-13 14-7 8-12 14-10 11-9 11-11 12-4 7-25 100h-1l1-10 14-85 2-12 6-8 10-13 9-11 13-16 7-9 11-14 13-16 6-7 16 1 30 4 2 1 2-10 5-15 7-14-18-13-19-14-18-13-19-14-2-1-14-39-10-29-13-36-2-7 3 3 12 24 10 19 17 33 9 16 13 10 17 12 19 14 18 13 7 5 4-1 10-10 11-8 14-8-1-4-9-16-8-13 4-16 14-48 7-23 14-47z" fill="#300543"/>
<path transform="translate(205)" d="m0 0h6v300l10 1 12 4 10 5 10 8 7 7 9 14 5 11 4 14 1 7v21l-4 22-1 4 23-14 21-13 26-16 3-9 18-67 6-24-7-20-11-26-13-27-12-21-5-8 1-2 7 10 15 25 14 27 10 21 8 21-9 41-12 53-3 12-15 10-44 29-21 14-7 5-5 12-2 5 24-1 82-2 16-17 9-10 14-15 12-13 8-10 1-12v-17l-3-26-5-21-6-16-4-9 1-2 8 16 7 19 5 20 3 27v16l-2 10-36 42-9 11-12 14-3 3-81 5-34 2-4 2-2 6 59 22 29 11 15 27 15 26 9 15v7l-5 19-9 21-9 16-10 13-11 12-4 3 2-4 10-11 10-15 11-23 6-20 3-15-11-18-13-20-14-22-2-3-67-22-18-6 2 9v18l13 17 10 14 13 18 7 10 4 25 6 39v6l-11 26-11 21-13 20-1-2 10-18 11-24 9-25-10-48-3-15-6-8-14-17-9-11-11-14-4 4-1 6v15l-3 12-5 10-9 10-2 1 2-5 5-14 1-7v-8l-1-8-12 3-13-1-6-1-1 4v16l5 15 2 5-4-2-7-8-6-13-2-10v-18l-4-6-5 5-11 14-14 17-11 13-13 62 2 9 10 25 8 17 10 17-1 2-8-11-12-21-11-23-4-10v-9l9-60 6-9 13-18 14-19 11-15v-17l2-10-36 12-49 16-14 22-26 39 1 13 5 18 8 19 9 15 9 12 9 10 1 2-4-2-7-7-9-11-7-10-8-14-7-15-5-16-2-10 1-6 17-29 14-24 8-14 26-10 35-13 26-10h2l-4-7-3-1-102-6-13-1-5-5-10-11-6-8v-11l7 6 14 15 3 4 86 2 21 1-8-18-33-22-26-17-27-18-10-42-12-52-2-9 1-6 10-24 14-29 10-19 13-21 7-10 1 2-12 21-12 23-13 28-12 31 1 8 15 56 10 36v2l5 2 17 10 21 13 28 17-4-18-1-8v-21l3-16 6-15 7-11 9-10 11-9 12-6 16-4h4z" fill="#421A58"/>
<path transform="translate(1645,1035)" d="m0 0 4 1 7 8 9 9 7 8 12 14 11 12 4 7-11 9-34 21-21 12-24 13-21 12-22 13-10 7-16 11-19 14-16 13-14 12-10 9-29 29-3 4h-2l-6-46-5-40-3-20v-6l6-9 12-12 14-11 18-12 24-14 16-8 23-12 16-8 23-11 18-7 20-6 10-5 10-9z" fill="#FDFDFD"/>
<path transform="translate(1031,1077)" d="m0 0h11l24 3 20 5 52 16 41 14 27 10 24 14 9 3h19v14l-4 37-6 39-2 5-5-2-23-12-26-11-35-13-30-10-33-9-36-8-30-5-26-3-28-2h-21v-3l8-10 9-11 11-13 9-11 11-13 11-14 6-7z" fill="#FDFDFD"/>
<path transform="translate(1175,47)" d="m0 0h2l8 57 5 34v7l-6 10-9 10-14 13-19 13-23 15-34 18-16 8-23 11-21 8-21 5-11 6-10 9-4-1-59-59 1-3 21-7 22-9 39-18 16-8 23-12 18-11 27-18 16-12 10-8 16-13 10-9 8-7 11-10 1-2h2l2-4 9-9z" fill="#FDFDFD"/>
<path transform="translate(1369,71)" d="m0 0 9 1 19 6 20 7 36 12 40 13 38 9 40 7 34 4 34 2h23l-1 4-11 13-10 13-10 12-10 13-13 17-12 3h-25l-29-4-36-8-52-13-26-8-21-8-16-8-11-4-16-1v-20l5-61z" fill="#FDFDFD"/>
<path transform="translate(1837,692)" d="m0 0 36 2 35 4 5 2-3 17-7 24-21 62-7 21-7 26-7 34-4 31-1 14v49l-9-5-16-12-20-14-18-13-17-12-3-9-1-6v-19l4-25 7-26 21-58 15-35 8-15 4-6 3-8 2-22z" fill="#FDFDFD"/>
<path transform="translate(1772,285)" d="m0 0 4 2 12 18 13 24 15 28 12 21 8 13 14 21 10 14 11 14 9 11 11 12 7 8 9 10 17 17 11 9 13 11v1l-21 3-72 8-7-1-11-7-12-11-9-10-13-18-10-15-14-24-14-25-9-16-15-28-9-24-7-11-8-8-2-1 1-4 11-9 32-24z" fill="#FDFDFD"/>
<path transform="translate(790,764)" d="m0 0h5l11 7 12 11 8 8 8 11 10 15 20 34 17 33 11 23 7 20 4 10 6 10 8 9-2 4-8 8-13 10-16 12-13 10-8 6-4-1-7-10-10-18-12-25-21-42-14-25-14-22-13-18-12-16-12-14-11-12-13-13-10-8-2-1v-3l70-10z" fill="#FDFDFD"/>
<path transform="translate(776,321)" d="m0 0 4 1 16 12 15 10 17 12 19 13 3 3 2 11v16l-2 17-6 27-14 52-9 29-7 20-4 10-13 21-2 6-1 14-1 1h-19l-42-2-13-1 1-9 13-38 14-40 8-27 8-32 6-31 5-39 2-37z" fill="#FDFDFD"/>
<path transform="translate(1371,1149)" d="m0 0h26l16 4 8 5 3 4 7 50 6 52v10l-6-2-16-8-18-7-26-8-28-6-17-3-35-3h-21l-14 1 2-21 3-24 3-5 9-8 13-8 20-8 18-6 25-6z" fill="#FDFDFD"/>
<path transform="translate(1548,918)" d="m0 0 4 2 9 10 8 10 14 17 10 13 9 11v2l-16 4-20 6-25 9-28 12-16 8-23 13-18 12-16 12-15 14-5 6h-2l-4-15-11-54-2-8v-5l11-12 8-7 17-10 27-12 34-13 30-13 16-9z" fill="#FDFDFD"/>
<path transform="translate(1688,676)" d="m0 0h12l26 3 49 7-1 4-8 11-11 18-11 19-16 36-7 18-5 17-5 23-2 14-1 28-6-2-17-11-15-10-11-7-15-10-3-7-1-5v-10l2-14 4-15 8-21 12-26 12-28 8-24z" fill="#FDFDFD"/>
<path transform="translate(1186,44)" d="m0 0 6 2 24 9 28 8 24 5 20 3 33 2 23-1 15-1v19l-2 26-10 10-14 8-15 7-20 7-25 6-13 2-10 1h-17l-16-2-11-4-5-4-2-4-10-68-3-27z" fill="#FDFDFD"/>
<path transform="translate(1117,949)" d="m0 0h17l23 4 19 6 31 12 15 6 20 7 23 6 9 2-1 24-5 48-2 13-4-2-16-10-22-12-23-11-30-11-19-6-30-7-28-4h-27l2-5 33-48 6-9z" fill="#FDFDFD"/>
<path transform="translate(1602,991)" d="m0 0h7l13 14 9 11 8 10-2 5-6 8-10 5-33 11-24 11-42 21-19 10-23 13-15 10-18 14-13 12h-4l-8-43-1-5v-7l8-11 6-7 8-7 14-11 15-10 18-11 19-10 24-11 28-11 22-7 12-3z" fill="#FDFDFD"/>
<path transform="translate(1074,1021)" d="m0 0h24l27 5 35 9 27 9 25 11 25 13 17 11 10 9v10l-4 31-2 4-5 2h-13l-16-8-10-6-19-8-17-6-30-10-54-17-28-7-21-3-19-1 6-9 11-14 8-11 8-10 6-2z" fill="#FDFDFD"/>
<path transform="translate(912,414)" d="m0 0 4 1 34 22 19 12 10 7 2 9v21l-4 20-8 22-18 41-7 21-4 17-2 3-26-2-52-6-5-1 2-5 6-9 11-19 9-19 11-28 8-25 5-22 3-16 2-20z" fill="#FDFDFD"/>
<path transform="translate(1367,161)" d="m0 0h11l10 4 16 8 16 6 18 6 36 10 29 7 39 8 28 4 27 1-6 8-9 11-11 14-11 13-2 2-17 3h-21l-29-4-34-8-26-8-26-10-22-10-16-9-9-7-1-5 4-38 1-4z" fill="#FDFDFD"/>
<path transform="translate(1664,366)" d="m0 0h3l4 15 9 27 12 29 10 21 9 16 12 19 13 17 9 10v2h2l7 8 11 9v3l-69 11h-7l-10-7-8-8-10-13-10-15-19-38-11-23-8-14-13-20 5-5 38-28 16-12z" fill="#FDFDFD"/>
<path transform="translate(1764,928)" d="m0 0h6l20 14 18 13 14 10 18 13 8 6v3l-15 4-17 7-19 10-11 7-18 12-16 13-12 11-7 6-7 8-8 8-11 14-3-1-7-8-9-10-9-11-4-5 1-14 7-21 13-25 13-19 11-13 15-15 16-12 9-4z" fill="#FDFDFD"/>
<path transform="translate(1356,220)" d="m0 0 5 2 27 14 23 10 34 12 31 8 30 5 25 2h19l-7 11-13 16-10 14-10 13-5 6-7 2h-17l-26-4-18-5-29-11-19-7-17-5-25-5-2-1v-10l8-51 2-14z" fill="#FDFDFD"/>
<path transform="translate(1705,336)" d="m0 0 5 1 6 4 8 11 8 19 9 20 25 45 14 24 13 21 11 16 11 14 5 6 8 7 7 6v2l-25 4-28 4-8-4-12-9-13-13-9-10-13-18-12-19-16-32-11-25-9-26-3-10-1-14 5-5 21-16z" fill="#FDFDFD"/>
<path transform="translate(896,985)" d="m0 0h13l19 5 21 9 21 12 13 10 10 9 11 11 7 10 4 8 1 6-4 8-14 17-10 13-12 14-11 14-13 15-4 5h-2l-2-14-6-20-8-19-9-17-9-14-10-14-12-13-8-9-11-9-11-8 5-5 18-14z" fill="#FDFDFD"/>
<path transform="translate(720,602)" d="m0 0 44 1 5 3 8 10 9 16 8 19 6 22 4 18 2 15v24l-4 17-2 6-12 3-44 7-30 4-13 1 1-4 5-11 7-18 7-28 4-31v-39l-4-28z" fill="#FDFDFD"/>
<path transform="translate(1201,226)" d="m0 0h2l5 22 9 47-2 6-9 11-9 8-10 7-14 8-33 15-28 11-17 8-13 8-4-1-12-13-7-8-12-14-9-9-7-8-3-3v-2l24-6 19-6 19-7 27-12 17-9 24-15 14-10 14-12 10-10z" fill="#FDFDFD"/>
<path transform="translate(1787,688)" d="m0 0 35 3 5 3 1 3v9l-2 10-13 24-11 25-13 34-7 20-9 27-5 21-3 22v24l-4-2-16-10-11-8-16-11-2-9v-28l5-28 8-27 12-29 11-23 13-22 8-12 9-11z" fill="#FDFDFD"/>
<path transform="translate(1190,159)" d="m0 0 3 1 8 49-2 6-9 13-12 12-14 11-17 12-19 11-23 12-27 11-30 10-19 4h-9l-8-7-11-12-7-6-6-7 2-4 8-8 8-4 24-6 20-8 26-12 19-10 24-13 23-14 12-8 12-9 14-12 9-10z" fill="#FDFDFD"/>
<path transform="translate(937,736)" d="m0 0h8l9 6 9 8 9 11 11 17 12 25 11 26 8 16 8 14 5 7v4l-11 9-13 11-13 10-16 13-8 5-1-1-3-17-12-36-10-23-8-16-12-21-11-16-10-13-12-13-10-8-4-3v-2l33-7z" fill="#FDFDFD"/>
<path transform="translate(1934,529)" d="m0 0h14l-6 12-7 15-7 18-7 25-5 26-3 32 1 33h-12l-33-4-6-9-8-16-7-18-6-25-2-13-1-12v-23l2-13 4-11 6-7 63-8z" fill="#FDFDFD"/>
<path transform="translate(858,752)" d="m0 0 5 1 11 8 10 9 11 11 14 19 12 20 10 18 10 22 9 24 5 17 2 12v12l-13 11-9 7-8 6-5-1-8-7-7-14-6-18-8-18-8-17-24-44-14-23-12-17-12-14-11-10-4-3v-2l34-6z" fill="#FDFDFD"/>
<path transform="translate(1669,140)" d="m0 0 2 1 6 16 9 21 12 22 10 16 12 16 12 14 17 17 18 13v3l-19 14-12 8-20-4-18-6-21-10-15-9-18-13-14-12-9-9-8-13-2-7v-6l11-14 13-16 11-14 13-16 9-11z" fill="#FDFDFD"/>
<path transform="translate(860,379)" d="m0 0 14 8 10 7 18 12 2 11v32l-3 20-5 22-6 20-8 22-11 25-9 17-12 18-5 6-3 1-33-3-6-2-1-4v-8l6-12 7-11 8-20 7-20 12-42 6-23 5-19 5-25 1-10z" fill="#FDFDFD"/>
<path transform="translate(294,1813)" d="m0 0h28l13 17 29 38 12 16 7 9v2h2v-82h29v134l-1 1h-24l-10-12-8-11-10-13-13-17-12-16-11-14v-2h-2v85h-28l-1-1z" fill="#56068A"/>
<path transform="translate(911,216)" d="m0 0 4 2 25 25v15l-3 15-4 12-7 16-12 20-13 18-14 15-12 9-8 4h-7l-16-10-14-10-19-13-10-7-12-9v-3l18-6 22-11 18-12 13-10 14-12 15-15 10-13 11-18z" fill="#FDFDFD"/>
<path transform="translate(1540,666)" d="m0 0 29 1 49 3 5 2v10l-4 29-6 30-2 15v30l3 16 3 11-1 3-14-8-36-22-21-12-8-6-5-13-2-12v-26l4-28 4-18z" fill="#FDFDFD"/>
<path transform="translate(1448,812)" d="m0 0 5 2v2l4 2 32 32 7 8 11 11-2 4-9 8-24 16-13 8-11 7-11 8-11 9-12 12-11 15-5 8-2 4h-2l-11-48-8-32v-8l5-10 9-11 14-14 11-9 12-10 20-13z" fill="#FDFDFD"/>
<path transform="translate(1547,456)" d="m0 0 4 2 8 8 6 5 7 8 9 11 11 14 9 11 9 10 11 11 13 9 12 7 15 6-1 2-39 7-55 11h-9l-13-9-13-12-7-7-7-8-10-11-10-13-8-11 1-4 10-9 14-11 16-13 14-11z" fill="#FDFDFD"/>
<path transform="translate(1194,841)" d="m0 0h28l27 3 24 4 6 2v22l-2 55-1 2h-20l-24-3-34-6-7-1h-33l-20 4-12 4v-3l7-10 10-15 15-23 8-12 7-11 6-9 7-2z" fill="#FDFDFD"/>
<path transform="translate(1392,1061)" d="m0 0h11l2 1 5 22 8 44 3 18-3 1-10-3-14-2h-18l-26 3-28 6-21 7-24 11-10 6h-3l4-48 1-3 14-11 10-8 22-14 16-9 12-6 20-8 17-5z" fill="#FDFDFD"/>
<path transform="translate(990,294)" d="m0 0 4 2 16 16 7 8 15 16 7 7 7 8 9 10 7 8 9 11v3l-15 10-18 13-16 13-9 7-14 13-8 7-4 3-5-1-11-7-30-20 2-4 7-10 8-13 7-12 10-25 6-18 5-21 3-21z" fill="#FDFDFD"/>
<path transform="translate(1e3 471)" d="m0 0 5 2 18 11 20 12 24 14 5 3 7 14 2 10 1 11v29l-3 27-3 12h-16l-34-2-25-1-2-2v-13l3-24 6-38v-33l-3-15-5-14z" fill="#FDFDFD"/>
<path transform="translate(1283,994)" d="m0 0 35 5 27 3h47l2 6 9 41v4l-24 3-21 6-21 9-16 8-20 12-20 14-8 7h-2v-11l9-84 2-22z" fill="#FDFDFD"/>
<path transform="translate(1062,708)" d="m0 0 6 2 10 6 16 15 9 9 18 22 9 14-1 4-20 18-12 11-8 7-10 9-5 2-8-7-7-8-12-14-12-17-9-11-11-12-5-5-10-9-16-10-9-4v-2l30-7 48-11z" fill="#FDFDFD"/>
<path transform="translate(1639,842)" d="m0 0 5 2 19 12 21 14-1 4-7 7-11 16-8 14-9 21-7 20-6 23-3 19-1 7-4-1-11-13-9-11-13-16-11-14-26-32v-2l11-7 21-16 11-9 14-12 13-12 8-9z" fill="#FDFDFD"/>
<path transform="translate(1354,131)" d="m0 0h1v17l-2 24-5 6-14 11-10 7-17 11-25 13-19 8-24 7-18 2-6-3-3-9-7-41-3-21v-5l11 3 11 2h33l16-2 19-4 20-6 19-8z" fill="#FDFDFD"/>
<path transform="translate(576,1813)" d="m0 0h29l1 83 3 12 6 8 10 5 5 1h9l10-3 7-5 5-9 2-12 1-80h29v86l-3 15-4 9-6 9-7 7-10 6-14 4-8 1h-14l-16-3-10-4-9-7-7-8-6-12-3-13z" fill="#56068B"/>
<path transform="translate(1341,356)" d="m0 0h17l28 3 28 4 8 1h29l18-3 16-5h2l-2 4-10 14-10 13-10 14-12 17-8 11-3 3-11 2h-40l-32-4-12-2-2-1 1-23 3-43z" fill="#FDFDFD"/>
<path transform="translate(1691,877)" d="m0 0 5 1 16 10 31 21 15 11-2 2-11 6-14 11-14 13-7 8-10 13-12 19-10 19-6 16-4 15-4-2-17-17-8-10v-16l2-17 5-21 8-23 8-18 10-19 9-12 6-7z" fill="#FDFDFD"/>
<path transform="translate(1741,554)" d="m0 0h6l5 25 6 20 11 26 12 22 14 21 9 11v2h-10l-77-10-21-2-6-2 1-14 4-31 1-15 1-45 13-3z" fill="#FDFDFD"/>
<path transform="translate(1548,292)" d="m0 0 8 6 18 10 16 7 20 8 24 7 32 7 15 2 3 1-2 4-16 12-13 9-18 14-19 13-14 11-6 4-4-2-8-9-7-8-9-10-5-6-8-7-9-9-17-13-12-8 1-4 12-17 12-15z" fill="#FDFDFD"/>
<path transform="translate(1349,187)" d="m0 0h2v10l-5 38-8 52-1 8-5 1-26-3-36-2h-22l-23 1-7-33-2-13 1-1 24-3 18-5 27-11 22-11 13-8 15-10 12-9z" fill="#FDFDFD"/>
<path transform="translate(1835,541)" d="m0 0 2 2-4 17-1 10v23l2 20 5 24 6 20 11 24 1 4-32-1-7-1-10-10-10-13-11-17-7-12-13-28-8-24-3-16v-10l5-2 58-8z" fill="#FDFDFD"/>
<path transform="translate(1603,222)" d="m0 0 6 12 8 10 13 13 14 11 16 11 21 12 16 7 24 8 5 2v2l-12 9-15 12-3 2-16-1-24-4-24-6-26-8-20-8-17-9-11-8-3-4 2-5 8-11 12-15 10-13 11-13z" fill="#FDFDFD"/>
<path transform="translate(1222,326)" d="m0 0 2 4 12 55 3 14v9l-9 13-12 13-8 8-11 9-18 14-12 8-5-1-10-11-7-8-9-10-13-14-5-6 2-4 18-13 27-18 19-14 13-12 10-12 8-13z" fill="#FDFDFD"/>
<path transform="translate(949,253)" d="m0 0 6 4 11 11 6 7 5 5 5 6-1 17-3 20-8 28-9 22-8 16-7 11-9 11-4 4-5-2-17-11-24-16-14-10v-3l10-6 11-9 7-8 8-9 12-17 9-16 8-16 7-21 3-17z" fill="#FDFDFD"/>
<path transform="translate(780,605)" d="m0 0h34l4 1 7 8 8 8 15 20 9 15 8 16 10 24 4 14 2 15v10l-4 4-59 11h-8l3-21v-22l-3-23-5-21-8-24-7-16-8-15z" fill="#FDFDFD"/>
<path transform="translate(830,607)" d="m0 0 18 1 74 8 16 2-2 19-1 15v74l-4 3-35 7h-6l-4-25-6-20-7-17-8-17-8-14-11-16-11-13-5-5z" fill="#FDFDFD"/>
<path transform="translate(1032,876)" d="m0 0 5 5 14 17 12 14 11 12 16 15 8 7 1 4-18 27-8 11-4-1-8-7-15-9-19-9-29-9-22-5-20-3-8-1 2-4 19-14 15-12 16-12 14-12 14-11z" fill="#FDFDFD"/>
<path transform="translate(1538,592)" d="m0 0 3 1-8 10-8 13-7 12-9 20-7 19-5 19-3 16-1 11v15l2 14-5-1-18-10-21-12-5-5-4-14-1-18 2-16 4-15 6-16 11-23 2-4 16-4 43-10z" fill="#FDFDFD"/>
<path transform="translate(938,951)" d="m0 0 27 2 25 5 26 8 20 8 16 9 11 9 3 4-1 4-7 11-13 18-14 19-7 8h-2l-6-11-10-13-9-9-11-9-17-12-22-12-20-8-17-5v-3l13-11 7-7 5-4z" fill="#FDFDFD"/>
<path transform="translate(1429,452)" d="m0 0h2l5 21 6 18 11 25 11 20 11 16 9 11 12 13 15 11v2l-49 11-6-1-15-9-11-10-11-14-10-15-8-16-10-19-2-2 1-5 6-9 19-28 10-15z" fill="#FDFDFD"/>
<path transform="translate(1117,541)" d="m0 0 6 2 20 12 16 9 4 8 3 12v22l-3 17-5 18-10 26-7 11-4 3-39 10-16 4-4-1 8-13 11-21 8-19 5-15 6-25 2-14 1-26z" fill="#FDFDFD"/>
<path transform="translate(1440,724)" d="m0 0 5 1 21 11 17 10 15 9 2 3-9 2-25 6-17 6-16 7-21 11-14 10-16 13-11 12-7 11h-2l-13-46v-6l6-10 9-10 10-9 17-11 14-7 24-9z" fill="#FDFDFD"/>
<path transform="translate(430,1813)" d="m0 0h34l17 28 14 24h2l16-27 8-13 7-11 1-1h33l-4 8-10 15-28 44-8 13-1 54-1 1h-28l-1-1-1-53-11-18-11-17-14-22-12-19z" fill="#56068A"/>
<path transform="translate(1255,430)" d="m0 0 5 2 23 13 21 9 27 9 22 5 14 2h38l-2 5-13 20-7 11-4 5-11 3-7 1h-20l-16-3-15-4-30-10-10-5-3-9-10-40-2-10z" fill="#FDFDFD"/>
<path transform="translate(1245,761)" d="m0 0h25l24 5 22 8 21 11 4 5 12 42 3 12v4l-5-2-17-10-23-12-23-9-27-7-18-3-11-1h-12l-15 2 1-5 9-14 14-22z" fill="#FDFDFD"/>
<path transform="translate(1249,455)" d="m0 0h2l10 36 1 7-6 12-11 13-10 8-14 9-19 10-25 10-4 2-16-8-26-15-16-10 1-2 20-4 23-7 24-11 19-10 17-12 16-13 10-10z" fill="#FDFDFD"/>
<path transform="translate(1536,780)" d="m0 0 5 1 28 16 13 8 10 6 6 5v1l-15 2-14 5-15 8-18 13-9 8-8 7-4 4-4-2-11-10-7-8-28-28-7-8v-3l16-8 19-8 15-5 17-3z" fill="#FDFDFD"/>
<path transform="translate(1153,685)" d="m0 0 9 3 11 7 12 11 8 10 11 19 10 23 2 6v6l-22 36-9 13-4 4-6-26-7-21-11-24-9-15-12-16-11-12-13-11v-2l32-9z" fill="#FDFDFD"/>
<path transform="translate(1490,367)" d="m0 0h2l2 15 6 16 8 13 13 16 16 16v2l4 2v4l-10 9-14 11-11 9-13 11-8 7-4-2-14-25-7-15-5-16-3-16v-5l11-15 13-18z" fill="#FDFDFD"/>
<path transform="translate(1287,853)" d="m0 0 9 1 23 8 19 8 14 9 10 9 6 7 5 18 7 30 2 10-4-1-9-7-16-7-19-4-19-2-30-2v-29z" fill="#FDFDFD"/>
<path transform="translate(1644,571)" d="m0 0 4 1-7 9-8 16-4 14-3 16-1 10-1 23-1 2h-24l-48-3-9-1 2-9 7-18 8-16 6-10 9-12 7-7 7-4 38-8z" fill="#FDFDFD"/>
<path transform="translate(1e3 621)" d="m0 0h27l47 3 1 2-6 23-10 25-9 16-8 10-6 5-32 8-24 5h-5l6-8 7-11 5-14 3-13 3-32z" fill="#FDFDFD"/>
<path transform="translate(1234,335)" d="m0 0 4 2 13 8 13 5 26 4 35 1 7 2-2 35-3 33-9-1-24-7-20-8-15-8-8-6-6-7-9-40z" fill="#FDFDFD"/>
<path transform="translate(1111,428)" d="m0 0 4 1 10 10 7 8 22 24 5 6-2 4-23 12-21 8-16 4-8 1h-10l-12-6-20-12-17-10-3-2v-2l17-2 16-6 13-7 14-10 14-12z" fill="#FDFDFD"/>
<path transform="translate(1285,938)" d="m0 0h19l29 3 21 5 12 6 10 8 9 11 4 11 1 11-8 2h-39l-39-5-17-3-5-2 2-46z" fill="#FDFDFD"/>
<path transform="translate(1592,420)" d="m0 0 5 5 7 9 10 17 14 28 11 23 11 20 13 18 10 11v2l-10-2-15-6-12-7-10-8-12-11-10-11-10-13-13-16-11-13-15-15 4-5 10-8 14-11z" fill="#FDFDFD"/>
<path transform="translate(1590,825)" d="m0 0h19l9 3 12 7 1 4-9 12-10 10-11 9-14 12-15 11-13 9-6 4-4-2-8-8-7-8-8-8-6-7 1-4 11-11 8-7 15-11 13-8 14-5z" fill="#FDFDFD"/>
<path transform="translate(1133,786)" d="m0 0 4 2 9 16 8 19 4 15 2 14-1 7-12 19-18 27-2 1-4-16-8-16-6-9-12-13-7-7-7-8-2-4 14-13 11-9 17-16z" fill="#FDFDFD"/>
<path transform="translate(1683,564)" d="m0 0h5l1 8v37l-2 23-5 31-1 3h-13l-35-2-2-2v-14l1-16 4-23 5-14 9-14 7-7 9-6 11-3z" fill="#FDFDFD"/>
<path transform="translate(1512,877)" d="m0 0 4 2 8 8 7 8 10 11 3 4v2l-18 11-19 9-50 19-20 9-16 9-14 10-6 5-1-2 6-18 7-11 15-16 14-12 24-16 20-12 19-14z" fill="#FDFDFD"/>
<path transform="translate(1510,342)" d="m0 0 5 1 15 9 10 9 8 7 5 4 7 8 8 8 7 8 12 15-1 4-15 12-11 9-8 7-6-1-22-22-12-16-7-12-4-11-1-5v-15l2-8z" fill="#FDFDFD"/>
<path transform="translate(1159,926)" d="m0 0h31l50 8 36 3v22l-1 23-1 1h-7l-17-4-33-11-29-12-24-8-22-5-21-2 1-3 12-6 13-4z" fill="#FDFDFD"/>
<path transform="translate(1631,672)" d="m0 0h16l32 2 1 3-5 19-10 25-16 35-8 20-5 18-3 16-1 12h-2l-7-14-4-15-1-7v-33l4-23 6-31z" fill="#FDFDFD"/>
<path transform="translate(948,618)" d="m0 0 41 2 4 2v15l-2 28-3 15-3 10-7 14-11 12-11 7-13 2-2-28v-27l2-32 3-19z" fill="#FDFDFD"/>
<path transform="translate(1243,298)" d="m0 0h38l29 2 21 3 4 2v11l-3 31-1 1h-30l-22-2-16-4-11-5-6-4-10-9-4-5-4-11-1-6 2-2z" fill="#FDFDFD"/>
<path transform="translate(1076,389)" d="m0 0h3l7 8 18 20 2 2-1 4-11 11-14 11-15 10-16 8-11 3h-25l-17-9v-4l11-12 11-10 14-11 10-8 16-12z" fill="#FDFDFD"/>
<path transform="translate(1072,841)" d="m0 0 5 1 21 21 12 16 6 12 2 6v24l-8 14-4 5h-3l-5-5-11-9-22-22-9-11-13-16-3-5 1-4 14-12 12-11z" fill="#FDFDFD"/>
<path transform="translate(1344,306)" d="m0 0h8l20 4 30 10 21 8 27 9 20 4 22 2-4 4-19 7-16 3-10 1h-15l-31-4-21-3-35-3-1-1 1-21 2-19z" fill="#FDFDFD"/>
<path transform="translate(958,734)" d="m0 0 9 1 13 5 12 7 11 9 15 15 11 14 14 19 9 11 4 4v2h2l7 8 3 5-7 7-8 7-15 13-4 1-7-8-9-16-8-17-14-32-10-20-9-13-11-13-8-7z" fill="#FDFDFD"/>
<path transform="translate(989,469)" d="m0 0h2l8 16 4 17v35l-8 51-2 23-1 1h-23l-20-1-1-1 1-11 4-15 11-28 15-33 5-16 4-21z" fill="#FDFDFD"/>
<path transform="translate(1215,313)" d="m0 0h2l-2 10-6 13-7 11-9 11-16 14-10 7-25 17-10 7-17 12-4-1-14-15-7-8-5-7 9-6 16-8 16-7 17-7 26-11 21-11 16-12 7-6z" fill="#FDFDFD"/>
<path transform="translate(1495,766)" d="m0 0h20l9 5 1 2-13 3-21 6-21 9-21 11-21 14-9 7-14 11-15 14-8 8-8 10-3 3-2-5-2-9 1-9 7-14 9-10 13-13 18-12 17-10 15-7 20-7 23-6z" fill="#FDFDFD"/>
<path transform="translate(1567,586)" d="m0 0 2 1-9 12-9 16-12 28-6 19-5 22-3 20-1 11v35l1 11-12-6-8-7-4-10-1-8v-20l3-20 4-17 10-27 13-25 7-11 11-13 8-8z" fill="#FDFDFD"/>
<path transform="translate(1221,811)" d="m0 0h14l22 3 20 5 21 7 24 11 17 10 11 8 8 7 4 9 1 5-4-2-22-12-19-8-26-8-30-7-28-4-10-1h-37v-3l8-12 4-4 14-3z" fill="#FDFDFD"/>
<path transform="translate(1444,432)" d="m0 0 2 2 5 18 11 25 10 18 15 22 13 16 9 11 12 13 16 16 8 6v3l-17 3-6-1-11-6-13-10-10-11-11-15-10-15-12-23-10-26-5-19-1-6v-14z" fill="#FDFDFD"/>
<path transform="translate(1171,573)" d="m0 0 6 1 20 11 6 3 4 8 2 10v15l-3 16-6 15-7 11-5 4-29 8-7 1 2-6 7-18 7-21 4-17 1-8v-20z" fill="#FDFDFD"/>
<path transform="translate(1249,404)" d="m0 0 5 2 10 6 24 10 15 5 23 6 30 5 29 3h39v3l-8 12-4 4-15 4h-25l-22-3-26-7-26-10-16-8-16-9-13-10-3-4z" fill="#FDFDFD"/>
<path transform="translate(1241,419)" d="m0 0 2 1 3 12v13l-8 11-9 10-14 11-14 10-21 12-15 7-19 7-17 5-10 2-15 1-12-6v-2l21-5 20-7 23-11 16-10 17-12 12-9 13-11 15-14 9-11z" fill="#FDFDFD"/>
<path transform="translate(1384,520)" d="m0 0 4 5 11 22 8 14 12 17 11 12 13 10 2 1v3l-30 8h-6l-10-6-13-13-9-13-7-14-5-14 1-5 13-21 3-5z" fill="#FDFDFD"/>
<path transform="translate(1099,699)" d="m0 0 11 7 11 9 8 8 10 13 11 18 8 16 7 17 5 19 4 22-1 9-4 7h-2l-4-15-5-15-7-15-11-21-12-18-10-13-12-14-18-18-8-6-3-2v-2z" fill="#FDFDFD"/>
<path transform="translate(1087,522)" d="m0 0 5 2 11 7 3 3 5 15 1 7v23l-2 18-6 25-7 20-8 18-9 17-8 12-8 9-10 3 2-5 9-16 8-19 6-18 7-30 4-26 1-13v-24l-2-21z" fill="#FDFDFD"/>
<path transform="translate(1451,611)" d="m0 0h4l-1 5-11 26-5 16-3 17v25l1 9-6-2-22-11-3-3-4-14v-21l5-17 6-11 9-10 7-3z" fill="#FDFDFD"/>
<path transform="translate(1263,512)" d="m0 0h3l7 23v8l-7 11-7 8-12 9-14 7-13 4h-11l-16-8-10-6 1-3 30-13 16-9 11-8 10-9h2l2-4 7-8z" fill="#FDFDFD"/>
<path transform="translate(1397,703)" d="m0 0h7l22 11 6 4-1 2-21 7-20 9-13 8-13 10-13 13-5 6-2-4-7-21v-6l7-10 6-7 11-8 12-7 15-5z" fill="#FDFDFD"/>
<path transform="translate(1274,504)" d="m0 0 15 4 30 10 16 3 11 1h13l12-1v3l-7 12-8 11-6 3-5 1h-25l-16-4-10-4-9-6-4-4-6-18-2-10z" fill="#FDFDFD"/>
<path transform="translate(1195,673)" d="m0 0 8 1 11 7 9 9 9 13 5 10 3 13-1 7-9 15-6 9-3-1-13-28-9-16-9-11-10-10-11-7-1-3z" fill="#FDFDFD"/>
<path transform="translate(1267,726)" d="m0 0h16l17 4 13 5 11 7 4 4 8 25v4l-6-2-23-10-20-6-19-3h-25l-6 1v-3l9-15 4-6 8-3z" fill="#FDFDFD"/>
<path transform="translate(1916,1917)" d="m0 0h7v64h-7l-1-6-6 5-5 2h-8l-8-4-4-5-3-10v-9l3-10 6-7 5-2h12l6 4 2 2z" fill="#330846"/>
<path transform="translate(1e3 1921)" d="m0 0h7l4 15 7 31v3h2l2-11 10-37 1-1h7l13 48 2-4 10-44h7l-2 12-11 48h-10l-10-35-3-10-12 44-1 1h-9l-4-15-10-43z" fill="#320745"/>
<path transform="translate(1762,1921)" d="m0 0h11l18 50 9-24 9-25 1-1h10v60h-7l-1-47-17 47h-8l-16-44-1-5h-2v49h-6z" fill="#310745"/>
<path transform="translate(117,1800)" d="m0 0h2l5 15 2 9v5l-13 13-7 10-3 9v14l2 7-1 4-11-9-6-8-3-10 1-9 8-16 11-13 8-11z" fill="#FDFDFD"/>
<path transform="translate(1616,1921)" d="m0 0h10l4 10 17 48v2h-8l-5-15v-2h-26l-3 11-2 6h-8l11-33 9-25z" fill="#320745"/>
<path transform="translate(1359,561)" d="m0 0h2l6 15 11 18 8 9v2l4 2 10 8-1 2-16 5-7-1-13-12-7-10-5-12-2-8 9-17z" fill="#FDFDFD"/>
<path transform="translate(1216,596)" d="m0 0 6 2 13 7 2 5v16l-4 14-8 14-4 3-12 4h-5l2-6 6-16 3-16v-26z" fill="#FDFDFD"/>
<path transform="translate(1403,624)" d="m0 0h3l-2 6-5 10-5 21v27l-6-2-15-7-1-3v-19l4-11 7-13 6-5 9-3z" fill="#FDFDFD"/>
<path transform="translate(1150,1935)" d="m0 0h13l6 3 5 6 1 3v13h-32l3 10 5 4 3 1h7l6-3 2-3 5 1 1 2-4 6-5 3-4 1h-9l-8-3-5-4-3-6-1-5v-12l4-10 6-5z" fill="#330846"/>
<path transform="translate(1950,1935)" d="m0 0h13l6 3 4 5 2 5v12h-32l3 10 4 4 3 1h8l6-3 2-3 4 1 2 2-6 7-8 3h-8l-9-3-6-7-2-6v-15l3-8 8-7z" fill="#330846"/>
<path transform="translate(1703,1935)" d="m0 0h13l7 4 4 6 1 4v10l-1 1h-31l2 9 5 5 3 1h8l6-3 2-3 5 2-2 5-5 4-6 2h-9l-8-3-6-7-2-5v-17l5-10 6-4z" fill="#330846"/>
<path transform="translate(1501,1935)" d="m0 0h13l7 4 4 6 1 4v10l-1 1h-31l2 9 5 5 3 1h8l6-3 2-3 5 2-2 5-5 4-6 2h-9l-8-3-6-7-2-5v-17l5-10 6-4z" fill="#330846"/>
<path transform="translate(1366,1935)" d="m0 0h13l7 4 4 6 1 4v10l-1 1h-31l2 9 5 5 3 1h8l6-3 2-3 5 2-2 5-5 4-6 2h-9l-8-3-6-7-2-5v-17l5-10 6-4z" fill="#330846"/>
<path transform="translate(1233,1935)" d="m0 0h13l7 4 4 6 1 4v10l-1 1h-31l2 9 5 5 3 1h8l6-3 2-3 5 2-2 5-5 4-6 2h-9l-8-3-6-7-2-5v-17l5-10 6-4z" fill="#330846"/>
<path transform="translate(1846,1935)" d="m0 0h14l6 4 2 4 1 30 1 2 5 2v4h-9l-3-3v-3l-6 5-5 2h-8l-6-3-3-3-1-3v-9l3-5 7-4 13-3 4-4-1-5-6-2-9 2-5 4-3-1-2-4 8-6z" fill="#320846"/>
<path transform="translate(1363,689)" d="m0 0h12l10 4 5 3-2 2-14 4-17 9-11 9-8 8-4 5h-2l-6-15v-6l4-6 10-8 12-6z" fill="#FDFDFD"/>
<path transform="translate(161,1834)" d="m0 0h1v10l-3 14-4 9-6 9-8 6-10 4-4 1h-12l1-8 6-12 9-9 17-9 7-6z" fill="#FDFDFD"/>
<path transform="translate(1292,1921)" d="m0 0h7v24h31v-24h7v60h-7v-30h-31v30h-7z" fill="#310644"/>
<path transform="translate(141,1815)" d="m0 0 3 3 4 14v9l-2 5-18 10-6 5-7 11-4 12h-2l-3-11v-8l3-10 6-10 10-10 7-6 7-11z" fill="#FDFDFD"/>
<path transform="translate(1277,552)" d="m0 0 2 1 5 16-1 5-9 10-10 7-13 5-11 2-14-7-1-3 12-4 15-8 13-10 8-9z" fill="#FDFDFD"/>
<path transform="translate(1287,548)" d="m0 0 16 6 20 4h18l9-1-1 5-8 13-2 2-11 1-17-3-10-4-9-5-4-11z" fill="#FDFDFD"/>
<path transform="translate(1229,662)" d="m0 0 6 4 10 10 8 15 3 10-1 5-7 12h-2l-4-11-6-11-9-12-9-9-7-5 3-3z" fill="#FDFDFD"/>
<path transform="translate(81,1819)" d="m0 0 3 4 4 11-5 11-2 8v9l4 11 8 9 6 4v1h-9l-12-4-8-6-4-6-2-8 1-11 13-26z" fill="#FDFDFD"/>
<path transform="translate(1087,1917)" d="m0 0h6l1 24 6-5 2-1h13l6 4 3 9v33h-7l-1-34-2-4-8-2-7 2-4 5-1 5-1 28h-7v-63z" fill="#320846"/>
<path transform="translate(1270,703)" d="m0 0h15l16 4 12 6 5 6 4 11-5-1-16-6-13-3h-24l-7 1 1-4 6-11z" fill="#FDFDFD"/>
<path transform="translate(99,1906)" d="m0 0h18l1 1-1 13-6 48-2 6-4-1-2-13-5-45v-8z" fill="#FDFDFD"/>
<path transform="translate(1450,1941)" d="m0 0h11l6 5 2 5v14l-4 8-6 3h-7l-6-3-4-5-1-4v-12l4-8z" fill="#FDFDFD"/>
<path transform="translate(1897,1941)" d="m0 0h10l6 4 3 8v11l-3 7-5 4-3 1h-7l-5-3-3-3-2-8v-8l3-9z" fill="#FDFDFD"/>
<path transform="translate(1448,1935)" d="m0 0h14l6 3 6 7 2 6v15l-5 10-5 4-7 2h-8l-8-3-5-5-3-6-1-4v-12l4-10 6-5zm2 6-6 4-3 7v12l3 7 5 4 3 1h7l7-4 3-7v-14l-3-6-5-4z" fill="#320846"/>
<path transform="translate(1544,1935)" d="m0 0h14l6 3 2 4-3 3-4-2-5-2h-7l-4 2-1 5 3 4 15 4 7 6 1 9-3 6-6 4-4 1h-9l-8-3-5-5 5-5 6 5 3 1h8l4-2 1-7-3-3-16-5-6-7v-8l3-5z" fill="#320846"/>
<path transform="translate(1369,633)" d="m0 0h5l-7 17-2 9-1 15-5-1-9-5-1-1 1-13 5-12 5-5z" fill="#FDFDFD"/>
<path transform="translate(1245,610)" d="m0 0 5 2 9 5-1 11-6 17-6 4-6 2h-4l3-9 4-13 1-16z" fill="#FDFDFD"/>
<path transform="translate(1340,677)" d="m0 0h9l8 4v2l-19 8-9 7-6 6-3-1-4-9 1-4 8-6z" fill="#FDFDFD"/>
<path transform="translate(1343,590)" d="m0 0 2 1 8 16 7 9 8 8-1 2-11 3-4-1-6-7-6-12-1-3v-9z" fill="#FDFDFD"/>
<path transform="translate(1253,654)" d="m0 0 5 5 8 13 2 9-6 12-2-2-6-14-8-10-6-6 1-3z" fill="#FDFDFD"/>
<path transform="translate(1658,1935)" d="m0 0h5l2 6 5-5 3-1h8l2 1-1 6h-9l-5 3-3 8-1 28h-7v-45z" fill="#330947"/>
<path transform="translate(1188,1935)" d="m0 0h5l2 6 5-5 3-1h8l2 1-1 6h-9l-5 3-3 8-1 28h-7v-45z" fill="#330947"/>
<path transform="translate(1404,1935)" d="m0 0h5l2 6 5-5 3-1h7l3 1-1 6h-9l-5 3-3 6-1 30h-7v-45z" fill="#340A48"/>
<path transform="translate(1296,578)" d="m0 0 5 1 13 4 5 1 16 1-1 5-5 8-13-1-12-4-5-4-3-8z" fill="#FDFDFD"/>
<path transform="translate(1286,582)" d="m0 0h2l3 8v5l-7 7-9 4-8 2-8-1-6-2 1-3 12-5 13-8z" fill="#FDFDFD"/>
<path transform="translate(1276,685)" d="m0 0h9l14 4 6 3 5 6 2 5-6-1-13-4-22-2 1-5z" fill="#FDFDFD"/>
<path transform="translate(1620,1928)" d="m0 0h2l10 30-1 1h-20l-1-2z" fill="#FDFDFD"/>
<path transform="translate(91,1892)" d="m0 0h34v10h-34l-1-1v-8z" fill="#FDFDFD"/>
<path transform="translate(1859,1957)" d="m0 0h3v9l-3 7-4 3-6 1-7-3-1-2v-8l3-3z" fill="#FDFDFD"/>
<path transform="translate(1706,1940)" d="m0 0 9 1 5 5 1 2v6h-25l1-7 4-5z" fill="#FDFDFD"/>
<path transform="translate(1504,1940)" d="m0 0 9 1 5 5 1 2v6h-25l1-7 4-5z" fill="#FDFDFD"/>
<path transform="translate(1369,1940)" d="m0 0 9 1 5 5 1 2v6h-25l1-7 4-5z" fill="#FDFDFD"/>
<path transform="translate(1236,1940)" d="m0 0 9 1 5 5 1 2v6h-25l1-7 4-5z" fill="#FDFDFD"/>
<path transform="translate(1154,1940)" d="m0 0 9 1 5 6 1 7h-26l2-8 6-5z" fill="#FDFDFD"/>
<path transform="translate(1954,1940)" d="m0 0 8 1 5 4 1 9h-25l1-6 3-5z" fill="#FDFDFD"/>
<path transform="translate(1345,640)" d="m0 0 3 1-5 16-2 7-10-4-3-2 1-5 5-9 8-3z" fill="#FDFDFD"/>
<path transform="translate(1267,621)" d="m0 0 5 1 7 4-1 5-4 8-5 3-8 2 1-7z" fill="#FDFDFD"/>
<path transform="translate(1332,610)" d="m0 0 2 1 7 14 4 5v3l-8 2-4-1-3-3-2-6 1-8z" fill="#FDFDFD"/>
<path transform="translate(1317,667)" d="m0 0h10l7 3v3l-8 3-11 6h-3l-3-8v-3z" fill="#FDFDFD"/>
<path transform="translate(1285,667)" d="m0 0 6 1 9 4 4 8v2l-7-1-17-3 2-6z" fill="#FDFDFD"/>
<path transform="translate(1272,648)" d="m0 0 4 2 3 7-1 7-4 7-3-4-7-12-2-3z" fill="#FDFDFD"/>
<path transform="translate(1303,601)" d="m0 0 18 4 4 1-2 5-3 5-4 1-9-4-4-10z" fill="#FDFDFD"/>
<path transform="translate(1293,603)" d="m0 0 3 1 2 11-9 4h-7l-6-3 1-3 11-6z" fill="#FDFDFD"/>
<path transform="translate(1390,805)" d="m0 0 2 1-18 18 4 2 13-13 2 1-15 15-4 5 1-4-4-2-4 3 2-4 9-11 7-7z" fill="#411957"/>
<path transform="translate(1301,637)" d="m0 0 5 1 3 3-2 6h-7l-2-1 1-6z" fill="#FDFDFD"/>
<path transform="translate(1986,1972)" d="m0 0h6l2 2v5l-2 2h-6l-2-2v-5z" fill="#320846"/>
<path transform="translate(270,1753)" d="m0 0 2 1v3l-24 13-2-1 15-10z" fill="#3A114F"/>
<path transform="translate(330,1220)" d="m0 0h1l-1 9-4 21-3-3 1-7z" fill="#3B1250"/>
<path transform="translate(109,1644)" d="m0 0h2l-2 11-5 20h-1l1-10 3-18z" fill="#3E1654"/>
<path transform="translate(408,285)" d="m0 0 3 3 9 20 1 8h-2l-6-18-5-11z" fill="#411856"/>
<path transform="translate(1746,1044)" d="m0 0v3l-24 24-2-1 7-7 6-7 8-7z" fill="#3C1250"/>
<path transform="translate(1733,936)" d="m0 0 2 1-22 22-2-1 14-15z" fill="#3C1351"/>
<path transform="translate(1390,805)" d="m0 0 2 1-16 16-1-2 7-8z" fill="#3C1351"/>
<path transform="translate(1321,645)" d="m0 0h3l-2 6-1 2-5-1v-3z" fill="#FDFDFD"/>
<path transform="translate(1293,653)" d="m0 0 3 3 2 6-8-2 2-5z" fill="#FDFDFD"/>
<path transform="translate(496,1317)" d="m0 0 1 3-4 12h-3v-3z" fill="#3B1250"/>
<path transform="translate(142,1275)" d="m0 0 3 3 5 10v2h-3l-5-13z" fill="#3D1452"/>
<path transform="translate(142,697)" d="m0 0h2l8 14-1 2-8-11z" fill="#411957"/>
<path transform="translate(1285,631)" d="m0 0 4 1 2 1-1 3-7 1z" fill="#FDFDFD"/>
<path transform="translate(93,169)" d="m0 0 1 2-9 15-2-2z" fill="#431B59"/>
<path transform="translate(1309,622)" d="m0 0 6 3-1 5h-3l-2-4z" fill="#FDFDFD"/>
<path transform="translate(1305,657)" d="m0 0 7 2v2l-7 3z" fill="#FDFDFD"/>
<path transform="translate(256,1762)" d="m0 0 4 1-8 5-6 2 4-4z" fill="#3D1452"/>
<path transform="translate(109,1644)" d="m0 0h2l-2 11-2 1v-9z" fill="#380E4C"/>
</svg>
